{"asset":{"version":"2.0","generator":"babylon.js glTF exporter for 3dsmax 2018 v20201223.2"},"scene":0,"scenes":[{"nodes":[0,1]}],"nodes":[{"mesh":0,"translation":[9.536744e-10,0,1.525879e-8],"name":"ids2cd6840ef"},{"name":"Default light"}],"meshes":[{"primitives":[{"attributes":{"POSITION":1,"TANGENT":2,"NORMAL":3,"TEXCOORD_0":4},"indices":0,"material":0}],"name":"ids2cd6840ef"}],"accessors":[{"bufferView":0,"componentType":5123,"count":252,"type":"SCALAR","name":"accessorIndices"},{"bufferView":1,"componentType":5126,"count":252,"max":[0.0178711135,0.0353021361,0.0976697654],"min":[-0.0178711135,-0.0353021361,-0.0976697654],"type":"VEC3","name":"accessorPositions"},{"bufferView":2,"componentType":5126,"count":252,"type":"VEC4","name":"accessorTangents"},{"bufferView":1,"byteOffset":3024,"componentType":5126,"count":252,"type":"VEC3","name":"accessorNormals"},{"bufferView":3,"componentType":5126,"count":252,"type":"VEC2","name":"accessorUVs"}],"bufferViews":[{"buffer":0,"byteLength":504,"name":"bufferViewScalar"},{"buffer":0,"byteOffset":504,"byteLength":6048,"byteStride":12,"name":"bufferViewFloatVec3"},{"buffer":0,"byteOffset":6552,"byteLength":4032,"byteStride":16,"name":"bufferViewFloatVec4"},{"buffer":0,"byteOffset":10584,"byteLength":2016,"byteStride":8,"name":"bufferViewFloatVec2"}],"buffers":[{"uri":"data:application/octet-stream;base64,","byteLength":12600}],"materials":[{"pbrMetallicRoughness":{"baseColorTexture":{"index":0},"metallicFactor":0,"roughnessFactor":0.546446562},"name":"ids2cd6840ef"}],"textures":[{"sampler":0,"source":0,"name":"bu5ds.jpg"}],"images":[{"uri":"data:image/jpeg;base64,"}],"samplers":[{"magFilter":9729,"minFilter":9987}]}