{"asset":{"version":"2.0","generator":"babylon.js glTF exporter for 3dsmax 2018 v20201223.2"},"scene":0,"scenes":[{"nodes":[0,1]}],"nodes":[{"mesh":0,"scale":[0.0787583,0.0787583,0.0787583],"name":"Plane001"},{"name":"Default light"}],"meshes":[{"primitives":[{"attributes":{"POSITION":1,"TANGENT":2,"NORMAL":3,"TEXCOORD_0":4},"indices":0,"material":0}],"name":"Plane001"}],"accessors":[{"bufferView":0,"componentType":5123,"count":96,"type":"SCALAR","name":"accessorIndices"},{"bufferView":1,"componentType":5126,"count":96,"max":[1.1865052,0,1.01072669],"min":[-1.1865052,0,-1.01072669],"type":"VEC3","name":"accessorPositions"},{"bufferView":2,"componentType":5126,"count":96,"type":"VEC4","name":"accessorTangents"},{"bufferView":1,"byteOffset":1152,"componentType":5126,"count":96,"type":"VEC3","name":"accessorNormals"},{"bufferView":3,"componentType":5126,"count":96,"type":"VEC2","name":"accessorUVs"}],"bufferViews":[{"buffer":0,"byteLength":192,"name":"bufferViewScalar"},{"buffer":0,"byteOffset":192,"byteLength":2304,"byteStride":12,"name":"bufferViewFloatVec3"},{"buffer":0,"byteOffset":2496,"byteLength":1536,"byteStride":16,"name":"bufferViewFloatVec4"},{"buffer":0,"byteOffset":4032,"byteLength":768,"byteStride":8,"name":"bufferViewFloatVec2"}],"buffers":[{"uri":"data:application/octet-stream;base64,","byteLength":4800}],"materials":[{"pbrMetallicRoughness":{"baseColorFactor":[0.5,0.5,0.5,1],"metallicFactor":0,"roughnessFactor":0.8},"name":"pppp"}]}