{"asset":{"version":"2.0","generator":"babylon.js glTF exporter for 3dsmax 2018 v20201223.2"},"scene":0,"scenes":[{"nodes":[0,1]}],"nodes":[{"mesh":0,"translation":[155.552719,-4.753,24.15493],"name":"dxs01"},{"name":"Default light"}],"meshes":[{"primitives":[{"attributes":{"POSITION":1,"TANGENT":2,"NORMAL":3,"TEXCOORD_0":4},"indices":0,"material":0}],"name":"dxs01"}],"accessors":[{"bufferView":0,"componentType":5123,"count":14883,"type":"SCALAR","name":"accessorIndices"},{"bufferView":1,"componentType":5126,"count":14883,"max":[41.6499443,2.69999886,25.2092476],"min":[-41.6499443,-2.384684,-25.1907578],"type":"VEC3","name":"accessorPositions"},{"bufferView":2,"componentType":5126,"count":14883,"type":"VEC4","name":"accessorTangents"},{"bufferView":1,"byteOffset":178596,"componentType":5126,"count":14883,"type":"VEC3","name":"accessorNormals"},{"bufferView":3,"componentType":5126,"count":14883,"type":"VEC2","name":"accessorUVs"}],"bufferViews":[{"buffer":0,"byteLength":29768,"name":"bufferViewScalar"},{"buffer":0,"byteOffset":29768,"byteLength":357192,"byteStride":12,"name":"bufferViewFloatVec3"},{"buffer":0,"byteOffset":386960,"byteLength":238128,"byteStride":16,"name":"bufferViewFloatVec4"},{"buffer":0,"byteOffset":625088,"byteLength":119064,"byteStride":8,"name":"bufferViewFloatVec2"}],"buffers":[{"uri":"data:application/octet-stream;base64,","byteLength":744152}],"materials":[{"pbrMetallicRoughness":{"baseColorFactor":[0.305882365,0.305882365,0.305882365,1],"metallicFactor":0,"roughnessFactor":0.7},"doubleSided":true,"name":"dxs1cjz","extras":{"babylonSeparateCullingPass":false,"babylonUseFactors":false,"babylonDirectIntensity":1,"babylonEmissiveIntensity":1,"babylonEnvironmentIntensity":1,"babylonSpecularIntensity":1}}]}